# xmcd
#
# Track frame offsets:
#	150
#	17622
#	29907
#	47127
#	65355
#	72990
#	87480
#	121620
#	135717
#	160222
#	179700
#	191932
#	209090
#	227217
#	235225
#	249075
#	283182
#	297257
#	322272
#
# Disc length: 4539 seconds
#
# Revision: 0
# Processed by: cddbd v1.5.2PL0 Copyright (c) Steve Scherf et al.
# Submitted via: EasyCDDAExtractor 10.0.5.1
#
DISCID=2e11b913
DTITLE=Marvin Gaye - What's Going On [Deluxe Edition] [CD1)
DYEAR=2001
DGENRE=R&B
TTITLE0=What's Going On
TTITLE1=What's Happening Brother
TTITLE2=Flyin' High (In The Friendly Sky)
TTITLE3=Save The Children
TTITLE4=God Is Love
TTITLE5=Mercy Mercy Me (The Ecology)
TTITLE6=Right On
TTITLE7=Wholy Holy
TTITLE8=Inner City Blues (Make Me Wanna Holler)
TTITLE9=What's Going On (Detroit Mix)
TTITLE10=What's Happening Brother (Detroit Mix)
TTITLE11=Flyin' High (In The Friendly Sky) (Detroit Mix)
TTITLE12=Save The Children (Detroit Mix)
TTITLE13=God Is Love (Detroit Mix)
TTITLE14=Mercy Mercy Me (The Ecology) (Detroit Mix)
TTITLE15=Right On (Detroit Mix)
TTITLE16=Wholy Holy (Detroit Mix)
TTITLE17=Inner City Blues (Make Me Wanna Holler) (Detroit Mix)
TTITLE18=The Foundation - What's Going On (Rhythm and Strings Mix)
EXTD=
EXTT0=
EXTT1=
EXTT2=
EXTT3=
EXTT4=
EXTT5=
EXTT6=
EXTT7=
EXTT8=
EXTT9=
EXTT10=
EXTT11=
EXTT12=
EXTT13=
EXTT14=
EXTT15=
EXTT16=
EXTT17=
EXTT18=
PLAYORDER=
